inDegrees=no
num_controls=7
num_derivatives=13
num_iterations=116
num_multipliers=7
num_parameters=0
num_slacks=7
num_states=26
objective=0.477057
objective_accelerations=0.044315
objective_balance=0.003627
objective_effort=0.040479
objective_height=0.382975
objective_ligament=0.005662
solver_duration=1748.008658
status=Solve_Succeeded
success=true
DataType=double
version=3
OpenSimVersion=4.5
endheader
time	/jointset/ground_pelvis/pelvis_tilt/value	/jointset/ground_pelvis/pelvis_tx/value	/jointset/ground_pelvis/pelvis_ty/value	/jointset/hip_l/hip_flexion_l/value	/jointset/hip_l/hip_adduction_l/value	/jointset/hip_l/hip_rotation_l/value	/jointset/back/lumbar_extension/value	/jointset/patellofemoral_l/patellar_flexion_l/value	/jointset/knee_l/knee_flexion_l/value	/jointset/knee_l/knee_adduction_l/value	/jointset/knee_l/knee_rotation_l/value	/jointset/ankle_l/ankle_angle_l/value	/jointset/subtalar_l/subtalar_angle_l/value	/jointset/ground_pelvis/pelvis_tilt/speed	/jointset/ground_pelvis/pelvis_tx/speed	/jointset/ground_pelvis/pelvis_ty/speed	/jointset/hip_l/hip_flexion_l/speed	/jointset/hip_l/hip_adduction_l/speed	/jointset/hip_l/hip_rotation_l/speed	/jointset/back/lumbar_extension/speed	/jointset/patellofemoral_l/patellar_flexion_l/speed	/jointset/knee_l/knee_flexion_l/speed	/jointset/knee_l/knee_adduction_l/speed	/jointset/knee_l/knee_rotation_l/speed	/jointset/ankle_l/ankle_angle_l/speed	/jointset/subtalar_l/subtalar_angle_l/speed	/forceset/tau_hip_flexion_l	/forceset/tau_hip_adduction_l	/forceset/tau_hip_rotation_l	/forceset/tau_knee_flexion_l	/forceset/tau_ankle_angle_l	/forceset/tau_subtalar_angle_l	/forceset/tau_lumbar_extension	lambda_cid13_p0	lambda_cid13_p1	lambda_cid13_p2	lambda_cid13_p3	lambda_cid13_p4	lambda_cid13_p5	lambda_cid14_p0	/jointset/ground_pelvis/pelvis_tilt/accel	/jointset/ground_pelvis/pelvis_tx/accel	/jointset/ground_pelvis/pelvis_ty/accel	/jointset/hip_l/hip_flexion_l/accel	/jointset/hip_l/hip_adduction_l/accel	/jointset/hip_l/hip_rotation_l/accel	/jointset/back/lumbar_extension/accel	/jointset/patellofemoral_l/patellar_flexion_l/accel	/jointset/knee_l/knee_flexion_l/accel	/jointset/knee_l/knee_adduction_l/accel	/jointset/knee_l/knee_rotation_l/accel	/jointset/ankle_l/ankle_angle_l/accel	/jointset/subtalar_l/subtalar_angle_l/accel	gamma_cid13_p0	gamma_cid13_p1	gamma_cid13_p2	gamma_cid13_p3	gamma_cid13_p4	gamma_cid13_p5	gamma_cid14_p0
1.5	0.01181478889952172	-0.01067056827113413	0.8529684337010651	0.6684137513224777	-0.3224673940626644	-0.1330585682104909	-0.7953549306558688	0.7778675511793675	0.7778675511800132	-0.1028306935119959	-0.1745117205461019	0.1553472176083058	0.02490976337995474	0.3128748305670078	0.2318792116361929	0.4213777063102371	-1.974190890523677	0.08488539747732056	-0.6431908728757521	0.8404995713191923	-1.996808398671567	-1.996808398671755	-0.1449978626773245	-0.000333667758450662	-0.4575485461702935	-0.06354104829032058	-0.1929454024970385	0.02324991513849033	-0.005312536686724888	-0.228213760985825	0.06487825708143058	0.03992962398560979	0.2757925423424655	-21.23560149597729	-15.92485131594023	4.713548052093501	-7.142813134614545	-668.1971109971961	-74.91973304169386	-15.27877462266465	-0.02735116301446219	0.6303993494007142	-0.6272055255693525	-0.6288640641428456	0.4737001933732669	-0.3647271622974743	1.912333401876762	-0.9732432414814276	-0.973243241481532	-0.2477625253814283	0.01823799388175644	-0.3038951260040072	0.4478111422433445	3.205150989966594e-07	9.999999496922985e-07	-1.427990867710558e-06	-1.901819955209288e-08	4.058860641358977e-07	5.835168397524622e-07	2.916194116821871e-07
1.51	0.01494205535461131	-0.008320442169841399	0.8571500494956064	0.6486420646497648	-0.3215957066548304	-0.13950878778219	-0.7868556915672902	0.7578531040626597	0.7578531040630569	-0.1042943591868471	-0.1745156912610629	0.1507570362600664	0.02429583677226342	0.3125383571023418	0.2381235041309415	0.4148610739829065	-1.979899035449701	0.08944750343577916	-0.6467492486143703	0.8592410616713257	-2.005803760203889	-2.005803760203939	-0.147761559408769	-0.0004335896126272024	-0.4603970491433634	-0.05922657028305479	-0.1858944759111395	0.0223281352594465	-0.005092052836612851	-0.2244234882197363	0.06562180869854328	0.03920793507330413	0.2689144089260996	-20.77491789041274	-15.73935683328674	4.737971508771381	-7.127935540039836	-663.8462487230505	-74.85172634561437	-15.99524266603743	-0.04280429372023774	0.6180957478745266	-0.6764847989722149	-0.5046695908200625	0.4466726163951393	-0.3355937939806373	1.838979143027941	-0.8211405431620571	-0.8211405431413863	-0.2943731692718516	-0.0201863212827184	-0.2616710430861698	0.4257332277465232	2.380615942440286e-07	1.399318581353497e-06	-8.624381727952844e-07	8.33662128464701e-08	3.494639105967419e-07	6.144018759260929e-07	2.562431651463565e-07
1.52	0.01806475530394942	-0.005908542833928827	0.8612639804243428	0.6288207205509975	-0.3206785568235457	-0.1459914313141431	-0.7781722531169606	0.7377570117438259	0.7377570117439615	-0.1057864018134829	-0.174519877003807	0.1461411012500712	0.0237255483642006	0.3119615294165732	0.2442338585601619	0.4078407331492933	-1.984122375735246	0.09397788216675108	-0.6496756649264502	0.8773394436693174	-2.013137439098389	-2.013137439098302	-0.1506732530300454	-0.0003766733154209658	-0.4626992785215395	-0.05481340836465536	-0.1788435493252226	0.02140635538041359	-0.004871568986632402	-0.2206332154536357	0.06636536031566065	0.03848624616101388	0.2620362755097451	-20.31378018714644	-15.55559910907369	4.764565600856123	-7.148245674612523	-659.5172493377888	-74.82288357978926	-16.70092339823589	-0.07542200723503822	0.6036117362950838	-0.7279472268258592	-0.3319031360471676	0.4673547478759507	-0.2383352769897555	1.783711731048399	-0.640906713917039	-0.6409067139170701	-0.2773619033478058	0.04960562415832048	-0.1946404070251705	0.467547924470092	1.771343968127992e-07	1.684910772411848e-06	-4.580500582244699e-07	1.541471066206489e-07	3.134425807111956e-07	6.308651855856215e-07	2.30153093546213e-07
1.53	0.02118047419592839	-0.003436292672620718	0.8653052898198274	0.6089645401091358	-0.3197161355307333	-0.1525013125207633	-0.7693112023178297	0.7175958048802871	0.7175958048799602	-0.1073073819852247	-0.1745233663622114	0.1415048359328268	0.0232000405296614	0.311139395736656	0.2501852860475374	0.4003455407558618	-1.986863327251261	0.09850109050867319	-0.6522269694594732	0.894750790975431	-2.018830746970254	-2.018830746970488	-0.1535255143601604	-0.0003143062050560079	-0.4644680317035013	-0.05027282705969538	-0.1718040369642101	0.02032376271989509	-0.004707265160456947	-0.2169401560534549	0.0668984955055273	0.03779523542751224	0.2551602097276389	-19.94216536943535	-15.37101891700877	4.792774345639919	-7.015762791352101	-655.4914998206199	-74.8460582897177	-17.39628343060859	-0.09204419404095592	0.5863173601132996	-0.7715877409073265	-0.2076404254983989	0.4437925160377943	-0.2522927470642392	1.701857453101231	-0.4926058768695389	-0.4926058769176168	-0.2892524591362008	-0.01444057002701174	-0.1550658635280636	0.4493170985247273	1.390789009105585e-07	1.849668620329676e-06	-2.248993102696416e-07	1.913492618564199e-07	2.99097125957609e-07	6.320054108239171e-07	2.139295828152368e-07
1.54	0.02428668472197418	-0.0009054464154080907	0.8692693907923167	0.5890884602988926	-0.3187086844267613	-0.159034459713838	-0.7602796358010955	0.6973858523274222	0.6973858523266264	-0.1088569036125301	-0.1745260306144199	0.1368534684658134	0.02272033928117508	0.3100598562299073	0.2559530777410655	0.392399048550218	-1.988102249412067	0.1029838443980926	-0.6543288622167224	0.9114425871898856	-2.02288657696405	-2.022886576964603	-0.1563815441419893	-0.0002116520747969298	-0.4657197084753172	-0.04565209115410453	-0.1647645246031854	0.0192411700593726	-0.004542961334292096	-0.2132470966532694	0.06743163069539335	0.03710422469400602	0.2482841439455435	-19.5684240998551	-15.18802213973893	4.822619091209109	-6.920215384223309	-651.4632069851122	-74.89372353779702	-18.08235225043969	-0.1269031726014034	0.5668845775256391	-0.8182071892683186	-0.03149726500561358	0.4592638573754136	-0.1484529218349863	1.639801512716523	-0.31341113830312	-0.3134111383030174	-0.2781155936905718	0.05766302813714207	-0.09122512499591744	0.483578844596281	1.000966935389075e-07	1.970539323559137e-06	-3.432923419809339e-08	2.285622147988726e-07	2.643113778420232e-07	6.200677519200902e-07	1.999284319772374e-07
1.55	0.02738067023017416	0.001682111493032818	0.8731518068729928	0.5692078370994031	-0.3176565146722608	-0.1655867885504544	-0.7510847188122082	0.6771438313241253	0.6771438313239446	-0.1104344858744761	-0.1745277222703011	0.1321923255209872	0.02228742539564543	0.3086948307841621	0.2615221885921488	0.3840167258638681	-1.987767110655074	0.1074424589027994	-0.6560609918108053	0.9274037264783829	-2.025234583156401	-2.025234583156988	-0.1591303515167035	-0.0001190765124932877	-0.4664174144043782	-0.04091588899078508	-0.1575969795871673	0.01813011530675914	-0.004458550446050778	-0.2098703913156186	0.06825981777852516	0.03622208373871871	0.2413292742872217	-19.12475764600221	-14.9249961496005	4.829122266034549	-6.822206781057268	-647.6854661724027	-74.81862628385063	-18.75185147981855	-0.1476792467257489	0.546534329462349	-0.8583263533425975	0.1042932000439719	0.4377308777457202	-0.1740440402951982	1.553707520460826	-0.1530757053402609	-0.1530757053453096	-0.272226597447412	-0.01378251101365979	-0.04526114277299578	0.470509608475407	6.00467533872838e-08	2.040844403560698e-06	1.07180502529678e-07	2.657876085772846e-07	2.059748569397873e-07	5.930620960699057e-07	1.884878262333198e-07
